<?xml version="1.0" encoding="UTF-8"?>
<svg width="18px" height="18px" viewBox="0 0 18 18" version="1.1" xmlns="http://www.w3.org/2000/svg" xmlns:xlink="http://www.w3.org/1999/xlink">
    <title>Icons/24x24/account</title>
    <g id="Symbols" stroke="none" stroke-width="1" fill="none" fill-rule="evenodd">
        <g id="Header/1920" transform="translate(-1751.000000, -40.000000)">
            <g id="Icons/24x24/account" transform="translate(1748.000000, 37.000000)">
                <rect id="Box" x="0" y="0" width="24" height="24"></rect>
                <path d="M7.46830783,12.5 C5.34651224,13.5291177 3.9994172,15.6802632 4,18.0384615 L4,18.0384615 C4,18.0384615 6.46153861,20.5 12,20.5 C17.5384615,20.5 20,18.0384615 20,18.0384615 L20,18.0384615 C20.0003543,15.6799849 18.6527361,13.5287675 16.5304615,12.5" id="Path" stroke="#FFFFFF" stroke-linecap="round" stroke-linejoin="round"></path>
                <path d="M12,3.5 C12.9674101,3.5 13.8435778,3.88541028 14.4776685,4.50959328 C15.1088868,5.13094879 15.5,5.98914986 15.5,6.9375 C15.5,7.99201163 15.0322786,9.22695606 14.2988204,10.1552391 C13.6918689,10.9234121 12.8947947,11.5 12,11.5 C11.1052053,11.5 10.3081311,10.9234121 9.70117962,10.1552391 C8.96772141,9.22695606 8.5,7.99201163 8.5,6.9375 C8.5,5.98914986 8.89111321,5.13094879 9.52233151,4.50959328 C10.1564222,3.88541028 11.0325899,3.5 12,3.5 Z" id="Shape" stroke="#FFFFFF"></path>
            </g>
        </g>
    </g>
</svg>